<?xml version="1.0" encoding="utf-8"?>
<!-- Generator: Adobe Illustrator 18.1.1, SVG Export Plug-In . SVG Version: 6.00 Build 0)  -->
<svg version="1.1" id="Layer_1" xmlns="http://www.w3.org/2000/svg" xmlns:xlink="http://www.w3.org/1999/xlink" x="0px" y="0px"
	 viewBox="0 0 841.9 595.3" enable-background="new 0 0 841.9 595.3" xml:space="preserve">
<path fill="#FFFFFF" d="M361.5,276.5h125.6l0,41.6H353.8l0-34.2C353.8,279,356.3,276.5,361.5,276.5L361.5,276.5z"/>
<g>
	<g>
		<path d="M418.9,303.1h3.1c-0.4,1.7-1.3,3-2.6,3.9c-1.3,0.9-2.9,1.4-4.8,1.4c-2.3,0-4.1-0.8-5.4-2.3c-1.3-1.5-2-3.6-2-6.3
			c0-2.6,0.6-4.6,1.9-6.1c1.3-1.5,3.1-2.3,5.4-2.3c2.4,0,4.3,0.7,5.7,2.2c0.7,0.9,1.3,1.9,1.6,3.1h-4.3c-0.2-0.4-0.4-0.7-0.6-0.9
			c-0.5-0.6-1.3-0.9-2.3-0.9c-0.9,0-1.6,0.3-2.2,0.9c-0.7,0.8-1.1,2.2-1.1,4c0,1.9,0.4,3.2,1.1,4c0.5,0.7,1.3,1,2.4,1
			c0.7,0,1.3-0.1,1.8-0.4c0.1,0,0.2-0.1,0.3-0.2c0.1-0.1,0.2-0.2,0.3-0.3c0.1-0.1,0.2-0.3,0.5-0.5
			C418,303.2,418.4,303.1,418.9,303.1L418.9,303.1z M387.8,308.1v-17.3h6.2v-1.5c0-0.6-0.2-1.1-0.6-1.6c-0.4-0.4-1-0.6-1.6-0.6
			h-14.5v3.7h6.2v17.3H387.8L387.8,308.1z M433.7,296.4c-0.6-0.9-1.4-1.3-2.5-1.3c-1.1,0-2,0.4-2.6,1.2c-0.6,0.8-0.9,1.9-0.9,3.4
			v8.4h-4.2v-21h2.1c0.6,0,1.1,0.2,1.5,0.6c0.4,0.4,0.6,0.9,0.6,1.5v4.8c0.7-1.2,1.8-2,3.1-2.3c1.3-0.3,2.6-0.2,3.8,0.2
			c1.1,0.5,2.1,1.3,2.9,2.3c0.8,1.1,1.2,2.5,1.2,4.4v9.5h-4.1v-8.4c0-0.6-0.1-1.2-0.2-1.7C434.3,297.5,434.1,296.9,433.7,296.4
			L433.7,296.4z M402.5,303.1h3.1c-0.4,1.7-1.3,3-2.6,3.9c-1.3,0.9-2.9,1.4-4.8,1.4c-2.3,0-4.1-0.8-5.4-2.3c-1.3-1.5-2-3.6-2-6.3
			c0-2.6,0.6-4.6,1.9-6.1c1.3-1.5,3.1-2.3,5.4-2.3c2.4,0,4.3,0.7,5.7,2.2c1.3,1.5,2,3.6,2,6.3c0,0.2,0,0.3,0,0.4c0,0.1,0,0.2,0,0.2
			c0,0.2,0,0.3-0.1,0.4h-10.6c0,1.3,0.3,2.2,0.9,2.8c0.5,0.7,1.3,1,2.4,1c0.7,0,1.3-0.1,1.8-0.4c0.1,0,0.2-0.1,0.3-0.2
			c0.1-0.1,0.2-0.2,0.3-0.3c0-0.1,0.2-0.3,0.5-0.5C401.6,303.2,402,303.1,402.5,303.1L402.5,303.1z M395.2,298.3h6.2
			c-0.1-1.1-0.4-1.9-0.9-2.4c-0.5-0.6-1.3-0.9-2.3-0.9c-0.9,0-1.6,0.3-2.2,0.9C395.5,296.4,395.2,297.3,395.2,298.3L395.2,298.3z"/>
		<path fill="#ED1C24" d="M460.2,308.1v-7.9c0-1.6,0.2-2.9,0.7-4c0.5-1.1,1.1-1.9,1.9-2.6c0.8-0.6,1.7-1.1,2.7-1.3
			c1-0.3,2.1-0.4,3.2-0.4c0.1,0,0.2,0,0.3,0c0.1,0,0.2,0,0.3,0v4.3h-1.4c-1.2,0-2.1,0.3-2.6,0.9c-0.6,0.6-0.9,1.5-0.9,2.7v8.4H460.2
			L460.2,308.1z M372.2,287.1h2.7l0,3.7h-4.4l0-2.1C370.5,287.6,371.1,287.1,372.2,287.1L372.2,287.1z M363.8,303.7h0.5h3.5h0.5v0.7
			v3.1v0.7h-0.5h-3.5h-0.5v-0.7v-3.1V303.7L363.8,303.7z M365.5,292.6h2.8v4.5h-4.5v-2.8C363.8,293.2,364.3,292.6,365.5,292.6
			L365.5,292.6z M370.5,292.6h4.4v15.5h-4.4V292.6L370.5,292.6z M477.1,308.1c-1.3,0.1-2.8,0.1-4.4-0.1c-1.6-0.1-2.4-1.1-2.4-3v-18
			h2.2c0.5,0,1,0.2,1.4,0.6c0.4,0.4,0.6,0.9,0.6,1.5v2.8h2.5v2.2c0,0.6-0.2,1.1-0.6,1.5c-0.4,0.4-0.9,0.6-1.5,0.6h-0.4v7.3
			c0,0.7,0.4,1,1.2,1c1,0,1.3,0.4,1.3,1.3V308.1L477.1,308.1z M448.6,287.1h3.4l7.6,21h-4.6l-1.4-4.3h-8.2l-1.3,4.3h-4.6l7-19.6
			C446.9,287.5,447.6,287.1,448.6,287.1L448.6,287.1z M449.6,291.3l-2.9,8.9h5.9L449.6,291.3L449.6,291.3z"/>
	</g>
</g>
</svg>
